<?xml version="1.0" standalone="no"?>
<!DOCTYPE svg PUBLIC "-//W3C//DTD SVG 20010904//EN"
 "http://www.w3.org/TR/2001/REC-SVG-20010904/DTD/svg10.dtd">
<svg version="1.0" xmlns="http://www.w3.org/2000/svg"
 width="300.000000pt" height="300.000000pt" viewBox="0 0 300.000000 300.000000"
 preserveAspectRatio="xMidYMid meet">
<metadata>
Created by potrace 1.10, written by Peter Selinger 2001-2011
</metadata>
<g transform="translate(0.000000,300.000000) scale(0.100000,-0.100000)"
fill="#000000" stroke="none">
<path d="M110 2829 c-53 -22 -100 -84 -100 -135 0 -26 0 -27 20 -9 20 18 20
17 20 -835 l0 -854 21 -22 21 -23 -21 -27 c-13 -17 -21 -41 -21 -65 0 -43 -6
-48 -26 -21 -12 15 -13 13 -14 -18 0 -48 39 -103 93 -129 40 -20 60 -21 279
-21 202 0 239 2 252 16 20 20 20 38 0 58 -13 14 -50 16 -254 16 l-238 0 -26
31 c-19 22 -26 42 -26 72 l0 42 1410 0 1410 0 0 -42 c0 -30 -7 -50 -26 -72
l-26 -31 -1032 0 c-988 0 -1034 -1 -1049 -18 -21 -23 -21 -36 -1 -56 13 -13
42 -16 165 -16 83 0 148 -4 145 -8 -2 -4 -12 -50 -20 -102 -26 -152 -19 -140
-77 -140 -100 0 -159 -51 -159 -139 0 -37 6 -49 39 -82 l39 -39 592 0 592 0
39 39 c33 33 39 45 39 82 0 88 -59 139 -159 139 -58 0 -51 -12 -77 140 -8 52
-18 98 -20 102 -3 4 207 8 467 8 460 0 474 1 516 21 53 26 93 81 93 128 0 27
-3 32 -12 23 -20 -20 -28 -14 -28 22 0 19 -9 45 -21 60 l-21 27 21 23 21 22 0
847 c0 466 4 847 8 847 4 0 13 -5 20 -12 9 -9 12 -5 12 19 0 35 -32 87 -73
117 -28 20 -39 21 -365 21 l-337 0 -3 -23 c-8 -51 -3 -52 320 -52 318 0 343
-3 368 -49 7 -13 10 -306 10 -870 l0 -851 -1410 0 -1410 0 0 851 c0 560 3 857
10 869 24 46 4 45 1014 50 899 5 960 6 970 23 8 12 8 22 0 35 -11 16 -69 17
-980 19 -627 1 -978 -2 -994 -8z m1050 -2126 c0 -3 -7 -15 -17 -25 -15 -17
-17 -17 -35 -2 -27 25 -22 34 17 34 19 0 35 -3 35 -7z m750 0 c0 -3 -7 -15
-17 -25 -15 -17 -17 -17 -35 -2 -27 25 -22 34 17 34 19 0 35 -3 35 -7z m-80
-41 c0 -5 9 -58 20 -118 11 -60 20 -112 20 -116 0 -5 -31 -8 -68 -8 -72 0 -92
-10 -92 -45 0 -41 16 -45 184 -45 89 0 166 -4 172 -8 19 -13 23 -39 8 -61 -15
-21 -16 -21 -574 -21 -558 0 -559 0 -574 21 -15 22 -11 48 8 61 6 4 147 8 314
8 190 0 311 4 323 10 21 12 25 50 7 68 -9 9 -74 12 -230 12 -120 0 -218 3
-218 8 0 4 9 56 20 116 11 60 20 113 20 118 0 4 149 8 330 8 182 0 330 -4 330
-8z m-712 -284 c-17 -10 -55 -10 -62 0 -3 5 2 19 10 31 l16 22 24 -22 c18 -17
21 -25 12 -31z m826 1 c-6 -10 -35 -12 -59 -3 -14 6 -13 10 7 31 l23 24 17
-21 c10 -12 15 -26 12 -31z"/>
<path d="M272 2518 c-18 -18 -14 -56 7 -68 30 -15 1033 -14 1049 2 15 15 15
51 0 66 -17 17 -1039 17 -1056 0z"/>
<path d="M2436 2514 c-14 -13 -16 -56 -16 -318 0 -281 1 -304 18 -319 27 -24
263 -25 286 -1 14 13 16 56 16 315 0 188 -4 308 -10 320 -10 17 -22 19 -145
19 -108 0 -137 -3 -149 -16z m68 -33 c3 -4 -3 -16 -13 -25 -24 -21 -38 -4 -15
18 18 18 21 19 28 7z m146 -286 l0 -245 -70 0 -70 0 0 245 0 245 70 0 70 0 0
-245z"/>
<path d="M1596 2394 c-3 -8 -6 -128 -6 -264 0 -236 1 -250 19 -260 29 -15 253
-13 274 3 16 11 17 36 15 272 l-3 260 -146 3 c-127 2 -147 0 -153 -14z m74
-33 c0 -12 -29 -35 -36 -28 -11 10 5 37 21 37 8 0 15 -4 15 -9z m187 -6 c3 -9
3 -19 -1 -22 -7 -7 -36 16 -36 28 0 15 30 10 37 -6z m-37 -215 l0 -190 -75 0
-75 0 0 190 0 190 75 0 75 0 0 -190z"/>
<path d="M276 2284 c-19 -18 -21 -45 -4 -62 9 -9 99 -12 345 -12 322 0 333 1
343 20 12 23 0 54 -26 64 -8 3 -157 6 -329 6 -272 0 -316 -2 -329 -16z"/>
<path d="M1096 2284 c-19 -18 -21 -45 -4 -62 13 -13 202 -17 232 -6 23 9 21
61 -3 74 -11 5 -62 10 -115 10 -73 0 -98 -4 -110 -16z"/>
<path d="M2022 2278 c-9 -9 -12 -68 -12 -205 0 -180 1 -193 19 -203 25 -13
247 -13 272 0 18 10 19 23 19 205 0 182 -1 195 -19 205 -28 15 -264 13 -279
-2z m218 -203 l0 -125 -75 0 -75 0 0 125 0 125 75 0 75 0 0 -125z"/>
<path d="M270 2015 c-18 -21 -4 -62 22 -68 44 -11 1009 -7 1029 4 15 8 19 19
17 42 l-3 32 -526 3 c-457 2 -528 0 -539 -13z"/>
<path d="M278 1789 c-21 -12 -24 -49 -6 -67 8 -8 49 -12 118 -12 91 0 109 3
123 18 22 24 21 35 -1 55 -15 14 -39 17 -118 17 -54 0 -107 -5 -116 -11z"/>
<path d="M652 1788 c-15 -15 -15 -51 0 -66 17 -17 659 -17 676 0 7 7 12 21 12
33 0 12 -5 26 -12 33 -17 17 -659 17 -676 0z"/>
<path d="M2246 1526 c-58 -112 -106 -209 -106 -215 0 -31 -23 6 -100 165 -47
97 -91 180 -97 186 -31 25 -58 0 -108 -102 l-49 -100 -86 0 c-91 0 -110 -8
-110 -46 0 -38 21 -45 136 -42 l109 3 40 77 40 77 92 -177 c50 -97 98 -181
107 -187 17 -11 43 0 59 26 5 8 53 102 107 209 l98 194 52 -104 c29 -58 58
-108 64 -112 6 -4 57 -8 113 -8 104 0 133 10 133 45 0 33 -30 45 -115 45 l-84
0 -68 133 c-98 192 -92 193 -227 -67z m159 113 c18 -35 13 -48 -10 -29 -13 11
-21 10 -45 -9 l-30 -22 22 46 c26 53 42 56 63 14z m-460 -59 c21 -40 19 -53
-4 -38 -15 9 -25 9 -45 0 -31 -14 -31 -13 -9 33 20 43 38 44 58 5z m164 -292
c15 -9 25 -9 45 0 l26 12 -20 -40 c-11 -22 -25 -40 -30 -40 -5 0 -19 18 -30
40 -22 43 -21 47 9 28z"/>
<path d="M276 1554 c-19 -18 -21 -45 -4 -62 17 -17 1039 -17 1056 0 7 7 12 21
12 33 0 45 3 45 -536 45 -453 0 -514 -2 -528 -16z"/>
<path d="M276 1324 c-19 -18 -21 -45 -4 -62 9 -9 83 -12 270 -12 l258 0 12 26
c11 23 10 29 -11 45 -21 17 -43 19 -266 19 -208 0 -246 -2 -259 -16z"/>
</g>
</svg>
