<?xml version="1.0" standalone="no"?>
<!DOCTYPE svg PUBLIC "-//W3C//DTD SVG 20010904//EN"
 "http://www.w3.org/TR/2001/REC-SVG-20010904/DTD/svg10.dtd">
<svg version="1.0" xmlns="http://www.w3.org/2000/svg"
 width="300.000000pt" height="300.000000pt" viewBox="0 0 300.000000 300.000000"
 preserveAspectRatio="xMidYMid meet">
<metadata>
Created by potrace 1.10, written by Peter Selinger 2001-2011
</metadata>
<g transform="translate(0.000000,300.000000) scale(0.100000,-0.100000)"
fill="#000000" stroke="none">
<path d="M1533 2835 c-18 -8 -42 -29 -53 -47 -19 -32 -20 -50 -20 -433 0 -379
1 -402 20 -432 32 -52 64 -63 194 -63 l115 0 3 -142 3 -143 26 -3 c21 -2 68
28 222 142 l195 145 342 3 342 3 34 37 34 38 0 414 c0 404 0 414 -21 440 -46
58 -20 56 -741 56 -547 -1 -669 -3 -695 -15z m1367 -85 c19 -19 20 -33 20
-393 0 -321 -2 -376 -16 -395 -15 -22 -15 -22 -355 -22 l-339 0 -168 -125
-167 -126 -3 113 c-1 61 -8 118 -14 125 -8 10 -47 13 -149 13 -112 0 -141 3
-153 16 -14 13 -16 63 -16 396 0 341 2 383 17 400 15 17 49 18 670 18 640 0
653 0 673 -20z m-1029 -1086 c11 -14 10 -18 -5 -30 -24 -17 -36 -10 -36 22 0
28 21 32 41 8z"/>
<path d="M2445 2637 c-3 -7 -4 -138 -3 -292 l3 -280 104 -3 c67 -2 108 1 117
9 19 16 21 548 2 567 -17 17 -217 17 -223 -1z m155 -282 l0 -215 -40 0 -40 0
0 215 0 215 40 0 40 0 0 -215z"/>
<path d="M2121 2486 c-8 -9 -11 -75 -9 -217 l3 -204 104 -3 c67 -2 108 1 117
9 19 15 21 398 2 417 -18 18 -202 16 -217 -2z m149 -206 l0 -140 -40 0 -40 0
0 140 0 140 40 0 40 0 0 -140z"/>
<path d="M1784 2317 c-2 -7 -3 -67 -2 -133 l3 -119 104 -3 c67 -2 108 1 117 9
18 15 20 229 2 247 -17 17 -217 17 -224 -1z m156 -122 l0 -55 -40 0 -40 0 0
55 0 55 40 0 40 0 0 -55z"/>
<path d="M1176 2024 c-481 -75 -901 -377 -1117 -802 -27 -52 -49 -109 -49
-125 0 -39 74 -186 153 -301 75 -110 242 -279 354 -359 493 -350 1142 -380
1667 -78 248 143 471 382 595 640 23 47 41 91 41 98 0 23 -90 195 -148 282
-69 104 -231 275 -335 353 -80 59 -103 68 -125 46 -25 -25 -11 -47 61 -99 162
-117 332 -319 425 -505 l40 -80 -47 -91 c-140 -264 -331 -458 -596 -604 -72
-40 -92 -55 -84 -65 13 -15 10 -17 -89 -53 -67 -25 -211 -62 -239 -61 -4 0 33
20 83 44 51 24 119 62 152 85 34 23 63 41 66 41 2 0 6 -7 8 -16 5 -25 87 46
159 136 228 287 270 681 106 1006 -77 153 -120 197 -155 162 -19 -19 -14 -38
27 -102 101 -154 142 -292 143 -471 3 -398 -241 -724 -629 -841 -77 -24 -106
-27 -228 -27 -167 0 -251 19 -390 88 -215 108 -379 306 -447 541 -20 68 -23
101 -23 239 1 155 2 163 34 257 44 128 106 232 193 324 86 91 141 132 244 183
95 47 171 70 283 85 91 12 116 29 95 64 -15 23 -108 25 -228 6z m-137 -102
c-53 -26 -119 -64 -147 -85 -59 -42 -62 -43 -62 -22 0 46 -148 -101 -220 -218
-98 -160 -140 -311 -140 -504 1 -198 48 -358 155 -518 72 -109 236 -264 211
-200 -8 22 1 19 68 -26 33 -22 96 -57 138 -77 43 -21 78 -40 78 -43 0 -11 -90
10 -186 41 -96 32 -139 57 -116 67 7 3 -38 34 -100 69 -132 75 -217 137 -309
226 -120 115 -219 251 -288 395 l-34 70 36 74 c125 258 329 466 619 629 59 33
75 47 67 56 -14 17 20 34 146 72 185 57 208 55 84 -6z"/>
<path d="M1385 1724 c-23 -24 -18 -182 8 -198 12 -8 22 -8 35 0 26 17 31 183
6 201 -23 17 -29 16 -49 -3z"/>
<path d="M1196 1625 c-133 -54 -230 -146 -296 -277 -48 -95 -52 -135 -15 -144
27 -7 55 9 55 31 0 7 16 43 34 81 48 95 130 175 226 221 41 19 82 38 90 43 32
16 18 70 -19 70 -9 0 -43 -11 -75 -25z"/>
<path d="M1520 1630 c-16 -30 2 -53 59 -73 125 -44 238 -154 290 -283 23 -58
32 -69 54 -72 44 -5 52 27 22 99 -56 140 -155 246 -289 310 -90 44 -120 48
-136 19z"/>
<path d="M1330 1397 c-274 -77 -310 -452 -57 -577 158 -78 337 -17 416 142 58
114 38 246 -50 342 -78 86 -202 123 -309 93z m144 -81 c142 -43 207 -196 138
-327 -73 -142 -269 -162 -374 -40 -59 70 -74 173 -34 249 24 47 88 102 136
117 58 18 77 18 134 1z"/>
<path d="M786 1124 c-42 -41 -8 -65 93 -66 103 -1 139 24 93 65 -26 23 -164
24 -186 1z"/>
<path d="M1852 1128 c-15 -15 -16 -55 0 -64 14 -9 174 -8 188 1 17 11 11 54
-9 65 -27 14 -164 13 -179 -2z"/>
<path d="M867 984 c-26 -26 29 -160 103 -252 81 -101 265 -207 317 -183 17 8
23 18 21 33 -3 23 -11 28 -113 75 -86 40 -186 141 -226 230 -17 37 -34 75 -38
83 -9 16 -52 26 -64 14z"/>
<path d="M1884 955 c-7 -19 -20 -50 -28 -67 -37 -89 -144 -195 -236 -235 -115
-50 -128 -64 -94 -98 21 -21 46 -15 139 30 128 62 233 179 281 310 25 69 19
95 -22 95 -19 0 -28 -8 -40 -35z"/>
<path d="M1382 658 c-7 -7 -12 -44 -12 -94 0 -88 10 -108 52 -102 22 3 23 8
26 91 3 92 -5 117 -37 117 -9 0 -22 -5 -29 -12z"/>
</g>
</svg>
