<?xml version="1.0" standalone="no"?>
<!DOCTYPE svg PUBLIC "-//W3C//DTD SVG 20010904//EN"
 "http://www.w3.org/TR/2001/REC-SVG-20010904/DTD/svg10.dtd">
<svg version="1.0" xmlns="http://www.w3.org/2000/svg"
 width="300.000000pt" height="300.000000pt" viewBox="0 0 300.000000 300.000000"
 preserveAspectRatio="xMidYMid meet">
<metadata>
Created by potrace 1.10, written by Peter Selinger 2001-2011
</metadata>
<g transform="translate(0.000000,300.000000) scale(0.100000,-0.100000)"
fill="#000000" stroke="none">
<path d="M395 2991 c-48 -12 -66 -25 -147 -108 -122 -126 -126 -194 -19 -305
l58 -59 -18 -37 c-23 -45 -25 -127 -3 -180 l15 -39 -53 -71 c-201 -267 -259
-624 -153 -947 30 -92 39 -105 70 -105 47 0 50 23 17 123 -17 50 -36 127 -43
170 -16 103 -6 278 21 382 26 98 93 239 154 321 l44 62 115 -115 115 -115 -39
-61 c-155 -240 -118 -569 86 -773 l73 -73 -30 -28 c-16 -15 -57 -72 -90 -125
-34 -54 -67 -98 -74 -98 -17 0 -164 146 -202 201 -35 53 -48 60 -79 48 -38
-14 -28 -51 35 -131 56 -70 113 -127 176 -176 l29 -22 -53 -83 c-29 -45 -62
-97 -73 -115 -11 -19 -30 -34 -46 -38 -55 -12 -103 -39 -142 -81 -58 -64 -69
-96 -69 -213 0 -110 11 -145 54 -174 30 -19 87 -23 68 -4 -7 7 -12 16 -12 20
0 4 466 8 1037 8 l1036 0 -19 -21 -19 -22 44 6 c52 6 105 52 122 105 40 121
-46 287 -181 351 l-55 26 -437 3 -438 3 0 79 0 80 346 0 c330 0 348 1 379 20
120 74 50 299 -111 360 -51 19 -77 20 -395 20 l-341 0 -76 38 c-70 34 -83 37
-162 37 -50 -1 -95 -6 -108 -14 -21 -11 -28 -9 -77 28 -156 118 -237 348 -191
545 16 66 81 206 96 206 4 0 56 -49 115 -110 l108 -109 1 -70 1 -71 90 -90
c96 -96 133 -116 193 -105 31 6 69 38 234 202 l196 195 12 -58 c15 -75 75
-203 128 -274 86 -114 258 -227 402 -261 91 -22 262 -17 350 10 210 64 361
194 450 386 52 111 65 172 64 300 -1 158 -42 291 -125 403 -25 34 -37 42 -57
40 -36 -4 -51 -32 -32 -60 94 -149 120 -220 127 -358 10 -184 -50 -335 -187
-471 -152 -151 -364 -212 -570 -163 -223 52 -412 241 -464 464 -26 111 -25
115 60 201 63 64 76 82 81 117 7 55 -2 85 -38 127 l-31 34 89 89 c66 67 106
98 160 125 198 98 427 88 613 -27 64 -39 81 -43 100 -22 24 30 7 59 -55 96
-217 130 -453 144 -670 41 -98 -47 -190 -115 -240 -178 -21 -27 -42 -52 -46
-57 -5 -5 -24 5 -43 22 -41 36 -97 50 -138 34 -28 -10 -34 -5 -312 273 -160
160 -300 292 -322 303 -65 33 -113 36 -184 12 l-62 -21 -43 45 c-24 24 -54 51
-66 59 -31 19 -86 27 -124 18z m123 -134 l52 -52 -110 -110 -110 -109 -50 49
c-28 28 -53 60 -56 71 -8 32 17 72 89 142 87 83 111 84 185 9z m131 -34 c4 -2
-14 -20 -40 -40 -13 -11 -15 -9 -11 16 2 16 -1 32 -7 35 -6 4 -11 11 -11 16 0
7 21 -1 69 -27z m174 -17 c18 -8 157 -139 309 -292 l278 -279 -247 -247 c-136
-136 -247 -246 -247 -245 -1 1 -128 131 -284 288 -235 237 -285 292 -292 323
-16 73 0 99 173 273 88 89 174 169 191 177 39 19 77 20 119 2z m-466 -249 l23
1 -21 -29 c-28 -40 -39 -44 -39 -15 0 14 -4 28 -10 31 -18 11 -11 28 8 19 9
-4 27 -7 39 -7z m-10 -299 c26 -24 30 -40 9 -32 -8 3 -24 0 -36 -6 -20 -11
-21 -10 -14 12 4 12 7 29 7 36 0 17 7 15 34 -10z m1125 -31 c-25 -24 -27 -23
-35 21 l-7 32 32 -16 31 -16 -21 -21z m176 -80 c57 -57 75 -80 75 -101 0 -24
-50 -78 -294 -322 -234 -234 -299 -294 -320 -294 -35 0 -182 149 -177 180 2
11 135 153 297 315 226 227 300 295 319 295 17 0 48 -23 100 -73z m68 34 c-1
-43 -6 -43 -53 5 l-23 23 30 -1 c17 -1 33 2 37 5 10 11 10 9 9 -32z m-1056
-242 c0 -4 -8 -7 -17 -7 -10 0 -27 -3 -37 -7 -16 -7 -18 -5 -13 9 4 10 7 29 7
44 l0 26 30 -29 c17 -16 30 -32 30 -36z m955 -144 c0 -56 -11 -69 -35 -40 -8
10 -21 13 -34 9 -15 -4 -9 7 24 40 24 25 44 46 45 46 0 0 0 -25 0 -55z m-684
-82 c25 7 24 -5 -4 -31 l-23 -22 -17 35 c-17 35 -17 36 4 24 12 -6 30 -9 40
-6z m-161 -644 c0 -4 -14 -17 -30 -29 l-31 -22 6 25 c4 14 2 35 -5 46 -11 21
-10 21 25 4 19 -9 35 -20 35 -24z m273 -52 c24 -14 58 -42 74 -61 52 -58 62
-103 65 -289 l3 -167 -389 0 -388 0 18 28 c10 15 58 90 107 167 185 288 199
305 292 342 51 21 165 11 218 -20z m171 -6 c3 -5 -1 -14 -9 -21 -8 -7 -15 -22
-15 -34 0 -18 -5 -16 -35 18 -19 21 -35 40 -35 42 0 8 89 4 94 -5z m661 -62
c39 -22 61 -47 80 -92 19 -45 19 -81 1 -96 -10 -8 -114 -12 -349 -14 l-335 -2
-4 66 c-3 39 -14 85 -27 111 -11 24 -21 46 -21 49 0 2 141 2 312 -1 265 -4
318 -8 343 -21z m-1355 -204 c-12 -20 -23 -35 -25 -33 -1 2 -10 18 -20 37 -15
30 -15 33 -1 28 9 -4 26 -3 38 2 32 12 33 7 8 -34z m738 -18 l22 -23 -25 -24
-25 -23 0 46 c0 26 1 47 3 47 2 0 13 -10 25 -23z m-855 -269 c-3 -5 -24 -8
-49 -8 l-45 0 32 39 33 38 16 -31 c9 -17 15 -34 13 -38z m861 1 c-6 -10 -58
-12 -67 -3 -3 4 2 17 11 29 l17 23 22 -20 c12 -12 20 -25 17 -29z m877 -61
c52 -15 117 -73 140 -122 28 -61 25 -131 -6 -161 l-24 -25 -1035 0 c-927 0
-1036 2 -1050 16 -23 23 -21 147 3 199 20 44 41 66 86 89 27 14 134 16 939 16
661 0 919 -3 947 -12z"/>
<path d="M835 908 c-102 -56 -121 -170 -41 -248 29 -28 45 -34 90 -38 44 -4
62 0 91 18 41 26 75 85 75 132 0 46 -38 107 -80 129 -38 21 -104 24 -135 7z
m108 -96 c54 -47 -18 -137 -78 -98 -46 30 -41 97 8 115 25 9 44 5 70 -17z"/>
<path d="M2215 2296 c-16 -7 -45 -30 -63 -50 -31 -34 -36 -36 -93 -36 -111 0
-159 -48 -159 -159 0 -62 -1 -65 -40 -98 -50 -43 -68 -96 -51 -152 7 -25 27
-53 51 -74 39 -33 40 -36 40 -98 0 -109 50 -159 161 -159 64 0 66 -1 98 -40
62 -77 158 -77 224 0 33 39 36 40 98 40 109 0 159 50 159 161 0 64 1 66 40 98
77 62 77 158 0 224 -39 33 -40 36 -40 98 0 111 -48 159 -159 159 -57 0 -62 2
-93 36 -54 60 -113 77 -173 50z m110 -112 c36 -48 86 -68 146 -60 42 6 49 4
67 -18 15 -20 18 -36 14 -74 -5 -59 13 -100 63 -138 25 -19 35 -34 35 -54 0
-20 -10 -35 -35 -54 -51 -39 -69 -79 -62 -139 5 -42 3 -52 -17 -72 -19 -19
-30 -22 -73 -18 -60 6 -100 -12 -139 -62 -36 -48 -72 -48 -108 0 -39 50 -79
68 -139 62 -42 -4 -54 -1 -72 18 -19 18 -22 30 -18 72 6 60 -12 100 -62 139
-25 19 -35 34 -35 54 0 20 10 35 35 54 50 39 68 79 62 139 -4 43 -1 54 18 73
20 20 30 22 72 17 60 -7 100 11 139 62 36 48 72 48 109 -1z"/>
</g>
</svg>
