<?xml version="1.0" standalone="no"?>
<!DOCTYPE svg PUBLIC "-//W3C//DTD SVG 20010904//EN"
 "http://www.w3.org/TR/2001/REC-SVG-20010904/DTD/svg10.dtd">
<svg version="1.0" xmlns="http://www.w3.org/2000/svg"
 width="300.000000pt" height="300.000000pt" viewBox="0 0 300.000000 300.000000"
 preserveAspectRatio="xMidYMid meet">
<metadata>
Created by potrace 1.10, written by Peter Selinger 2001-2011
</metadata>
<g transform="translate(0.000000,300.000000) scale(0.100000,-0.100000)"
fill="#000000" stroke="none">
<path d="M2095 2895 c-77 -82 -107 -135 -101 -175 5 -33 37 -72 68 -82 10 -4
8 -10 -6 -27 -24 -27 -26 -27 -83 9 -50 32 -107 39 -136 18 -9 -7 -113 -170
-231 -363 l-214 -350 -65 -3 -66 -3 35 68 c165 325 -14 734 -371 846 -98 31
-252 31 -350 0 -357 -112 -536 -521 -371 -845 l34 -68 -44 0 c-56 0 -99 -22
-124 -63 -17 -28 -20 -51 -20 -167 0 -116 3 -139 20 -167 26 -43 60 -64 112
-68 38 -3 43 -6 40 -27 -2 -13 -41 -261 -88 -553 -58 -357 -84 -548 -82 -585
7 -95 60 -174 144 -216 38 -18 71 -19 877 -22 l838 -2 30 29 c26 26 29 36 29
94 l0 64 78 6 c171 13 377 98 522 215 244 195 380 476 380 782 0 226 -73 413
-225 578 -39 42 -83 97 -97 122 -14 25 -40 58 -57 74 -17 17 -31 34 -31 39 0
4 13 28 29 51 60 87 48 134 -46 187 -32 18 -60 34 -62 35 -4 4 23 64 29 64 3
0 14 -7 24 -15 20 -15 63 -20 90 -9 16 6 104 113 125 151 18 34 13 80 -11 106
-33 35 -506 308 -546 314 -29 5 -38 1 -77 -42z m42 -36 c-20 -17 -49 -50 -63
-75 -25 -42 -25 -45 -10 -70 10 -13 40 -39 68 -56 l52 -32 -32 -8 c-21 -6 -40
-21 -52 -41 -25 -40 -25 -39 7 -77 l27 -32 -40 20 c-21 12 -52 30 -69 41 -29
20 -29 21 -7 21 26 0 82 50 82 74 0 8 -13 31 -30 49 -16 19 -30 46 -30 59 0
31 94 158 118 158 11 0 5 -10 -21 -31z m274 -155 c129 -75 236 -138 237 -139
6 -5 -80 -110 -88 -108 -4 1 -99 56 -211 121 -112 66 -219 127 -236 136 l-33
16 43 55 c23 30 45 55 48 55 3 0 111 -61 240 -136z m-1526 44 c130 -33 269
-150 330 -280 174 -367 -134 -783 -537 -728 -164 23 -321 139 -393 292 -92
195 -55 416 97 574 130 136 318 189 503 142z m1784 -138 c10 -5 21 -17 25 -25
6 -18 -16 -79 -33 -89 -5 -4 -4 6 4 21 20 38 19 53 -7 80 -23 24 -19 29 11 13z
m-780 -12 c-2 -2 -19 -16 -38 -33 -19 -16 -30 -23 -26 -15 15 29 38 50 53 50
9 0 13 -1 11 -2z m481 -138 l40 -21 -15 -29 c-9 -17 -17 -30 -18 -30 -2 0 -62
35 -134 78 l-130 79 19 25 18 26 91 -54 c49 -30 108 -63 129 -74z m-170 -84
c162 -98 299 -181 303 -185 4 -5 -5 -29 -20 -54 -26 -43 -30 -46 -58 -39 -109
26 -233 -8 -312 -87 -69 -69 -88 -120 -88 -231 0 -100 17 -152 67 -206 l20
-22 -42 -66 c-40 -64 -43 -66 -64 -52 -11 8 -145 94 -296 192 -151 97 -276
178 -278 179 -2 1 95 161 214 356 119 194 221 363 227 376 6 13 15 22 21 20 6
-3 144 -84 306 -181z m280 79 c50 -32 53 -35 27 -35 -33 0 -77 -43 -77 -75 0
-12 9 -34 21 -49 28 -35 14 -33 -54 10 -58 36 -72 50 -39 40 24 -8 69 32 78
69 4 17 1 32 -10 44 -17 19 -21 31 -8 31 4 0 32 -16 62 -35z m69 -239 c14 -16
7 -71 -10 -81 -5 -4 -5 5 1 20 11 29 8 37 -24 74 l-21 24 21 -11 c11 -6 26
-18 33 -26z m-35 -132 c-14 -33 -13 -38 7 -71 13 -21 16 -32 8 -27 -8 5 -31
20 -52 33 l-37 23 42 39 c24 21 44 38 45 39 1 0 -5 -16 -13 -36z m-64 -94 c42
-22 81 -63 104 -107 76 -151 -37 -332 -208 -333 -206 -1 -314 242 -173 388 76
80 184 100 277 52z m-2109 -113 l41 -48 -38 20 c-21 12 -56 21 -76 21 -44 0
-45 3 -18 37 13 16 18 34 15 47 -5 19 -4 18 15 -4 11 -14 39 -47 61 -73z m897
66 c0 -41 34 -63 97 -63 43 0 60 5 84 26 37 31 38 28 6 -27 -28 -50 -32 -81
-10 -99 29 -24 15 -30 -25 -10 -57 29 -84 26 -114 -13 -15 -19 -26 -40 -26
-48 1 -22 29 -51 98 -98 34 -24 62 -45 62 -47 0 -2 -10 0 -22 5 -15 6 -32 4
-50 -5 -29 -15 -88 -109 -88 -141 0 -27 108 -123 138 -123 6 0 25 12 43 28 18
15 29 20 25 12 -19 -33 -40 -50 -62 -50 -13 0 -39 -14 -58 -30 l-35 -31 -7 46
c-3 25 -17 61 -30 81 -13 19 -27 47 -30 62 -4 15 -15 39 -26 54 l-19 27 36 7
c36 6 85 53 85 80 0 8 -16 31 -35 53 -40 44 -43 66 -15 121 26 51 25 75 -2 94
-30 21 -56 20 -103 -5 l-40 -21 31 33 c17 19 43 51 59 72 15 20 29 37 30 37 1
0 3 -12 3 -27z m1492 -194 l35 -44 -40 33 c-47 38 -52 39 -82 10 l-23 -21 -1
34 c0 19 -2 41 -4 50 -1 9 -6 32 -9 50 l-7 34 48 -51 c27 -28 64 -71 83 -95z
m-2368 36 c95 -85 255 -145 388 -145 133 0 293 60 388 145 39 35 57 45 85 45
l36 0 -35 -51 c-45 -68 -45 -101 2 -145 19 -19 40 -34 44 -34 5 0 4 -11 -2
-25 l-11 -25 -547 0 c-411 0 -549 3 -558 12 -8 8 -12 50 -12 124 0 140 3 144
102 144 69 0 71 -1 120 -45z m1327 -255 c193 -124 350 -229 350 -235 0 -5 -8
-21 -18 -34 l-19 -24 -360 232 -361 233 21 29 c12 16 26 28 30 27 4 -2 165
-104 357 -228z m1030 150 c52 -73 95 -165 118 -250 27 -99 24 -299 -5 -409
-87 -321 -320 -561 -637 -657 -83 -25 -108 -27 -306 -32 l-215 -4 -11 46 -10
46 119 0 c137 0 170 11 189 64 12 32 15 34 74 40 152 16 295 86 416 206 141
140 207 285 216 480 6 121 -10 200 -57 289 l-29 53 24 32 c31 41 55 98 55 131
0 38 13 31 59 -35z m-532 -153 c-12 -5 -33 -18 -46 -30 -23 -21 -24 -21 -16
-2 18 45 17 75 -4 109 -20 32 -17 30 33 -17 51 -49 53 -53 33 -60z m377 72
c-16 -31 -15 -64 2 -104 7 -17 2 -15 -25 8 -18 15 -41 27 -52 27 -15 0 -9 9
23 38 24 20 47 43 51 50 16 25 17 11 1 -19z m-1148 -95 c30 -19 54 -37 54 -38
0 -2 -17 -33 -38 -69 l-38 -65 -45 35 c-24 19 -50 38 -57 42 -10 6 -4 22 24
69 20 34 39 62 42 62 3 0 29 -16 58 -36z m120 -16 c32 -23 84 -56 114 -74 63
-38 121 -83 83 -65 -32 16 -39 14 -78 -20 -19 -17 -35 -26 -35 -21 0 6 4 13 9
16 5 3 11 18 14 33 4 21 -2 34 -28 60 -41 41 -60 41 -104 1 -25 -24 -32 -28
-26 -13 19 48 18 76 -6 101 -34 37 -9 29 57 -18z m-1236 -18 c-12 -16 -24 -30
-28 -29 -4 0 -17 13 -30 30 l-24 29 52 0 51 0 -21 -30z m2266 -123 c19 -72 14
-190 -12 -277 -62 -213 -241 -384 -460 -440 -104 -27 -122 -26 -130 5 -3 14
-18 34 -31 45 -24 19 -41 20 -259 20 l-233 0 -6 33 c-3 17 -21 131 -40 252
-19 121 -37 230 -40 243 -5 20 -3 22 20 16 48 -12 81 13 131 97 l46 79 29 -21
c16 -11 29 -22 29 -25 0 -3 -20 -39 -45 -82 -55 -93 -59 -135 -17 -174 68 -63
139 -108 171 -108 50 0 65 13 117 102 26 46 48 84 49 86 2 1 25 -12 54 -29 67
-42 100 -34 153 36 46 61 54 94 33 135 -16 30 -15 32 21 91 31 51 40 60 58 54
125 -40 183 -41 261 -6 l40 18 23 -44 c12 -24 30 -71 38 -106z m-1344 -1 c24
-20 28 -39 73 -320 26 -165 49 -306 52 -313 4 -11 -47 -13 -267 -13 l-272 0
-29 -29 c-27 -27 -29 -35 -29 -106 0 -129 21 -145 198 -145 l118 0 -10 -45
-11 -45 -108 0 c-155 0 -186 -21 -187 -127 l0 -63 -235 0 c-175 0 -244 3 -268
14 -44 18 -95 78 -103 120 -4 22 6 110 25 229 17 107 31 196 31 198 0 2 81 3
180 1 l180 -3 0 51 0 51 -172 -1 c-162 -1 -173 0 -169 17 2 10 8 51 15 92 l11
74 228 -2 227 -2 0 50 0 51 -221 0 -221 0 6 28 c3 15 11 58 17 95 l11 68 112
-2 111 -2 3 46 3 46 -108 3 -109 3 9 42 8 43 432 2 432 3 6 -44 c4 -30 13 -50
31 -65z m863 61 c-11 -26 -11 -41 -2 -75 10 -37 9 -47 -8 -78 -28 -51 -57 -69
-92 -55 -27 11 -27 11 -2 6 31 -5 64 16 84 56 19 35 11 53 -40 98 -35 30 -35
31 -11 31 14 0 38 11 53 25 15 13 29 25 30 25 1 0 -4 -15 -12 -33z m-1795
-109 c-16 -9 -33 -25 -40 -35 -9 -14 -10 -7 -5 35 9 81 13 85 45 49 l28 -31
-28 -18z m1514 -41 c7 -2 -47 -108 -80 -155 -4 -6 -115 81 -112 87 2 3 20 36
41 73 l38 66 51 -34 c29 -18 56 -35 62 -37z m57 22 c62 -39 78 -58 45 -52 -18
4 -33 -3 -51 -21 -14 -14 -28 -26 -30 -26 -2 0 2 16 8 35 9 31 8 39 -12 65
-27 38 -20 38 40 -1z m-282 -66 c-8 -22 -6 -32 11 -54 27 -38 25 -47 -5 -19
-14 13 -25 29 -25 36 0 17 18 64 25 64 2 0 0 -12 -6 -27z m180 -139 c-25 -24
-27 -25 -60 -11 l-34 15 35 -5 c27 -4 40 0 54 16 11 12 22 19 25 16 3 -3 -6
-17 -20 -31z m-1514 -11 l23 -28 -31 -27 c-42 -35 -48 -35 -41 5 15 90 14 89
49 50z m-46 -283 l22 -30 -28 -25 c-15 -13 -32 -25 -37 -25 -8 0 1 87 11 103
6 10 7 10 32 -23z m1216 -87 c13 -16 25 -31 25 -35 0 -5 -22 -8 -50 -8 -27 0
-50 3 -50 6 0 6 43 62 48 63 2 1 14 -11 27 -26z m-586 -60 c-13 -16 -25 -29
-25 -31 -1 -2 -5 1 -8 7 -8 12 28 51 46 51 6 0 1 -12 -13 -27z m1104 -20 l45
-47 -42 -48 c-22 -26 -47 -48 -55 -48 -10 0 -8 7 7 23 26 28 30 102 7 133 -14
19 -19 34 -11 34 2 0 24 -21 49 -47z m-53 -50 l0 -48 -520 0 -520 0 0 48 0 47
520 0 520 0 0 -47z m-1040 -91 c-15 -5 -40 17 -40 36 0 12 6 10 26 -9 14 -13
20 -25 14 -27z m314 -14 c-4 -7 -16 -23 -27 -35 l-20 -23 -24 32 c-12 18 -23
33 -23 35 0 2 23 3 51 3 37 0 48 -3 43 -12z m487 -14 c-12 -15 -21 -36 -21
-48 0 -18 -3 -16 -19 10 -11 18 -24 35 -30 38 -24 16 -8 26 40 26 l50 0 -20
-26z m-73 -63 c7 -21 12 -41 12 -45 0 -3 -99 -6 -220 -6 -121 0 -220 3 -220 8
0 4 5 24 11 45 l10 37 198 0 198 0 11 -39z m-444 -69 l30 -32 -58 0 -57 0 28
35 c15 19 27 33 28 32 0 -1 13 -17 29 -35z m535 -4 l24 -28 -57 0 -57 0 28 35
c15 19 30 31 33 27 3 -4 16 -19 29 -34z m304 -24 c3 -4 -4 -19 -15 -35 l-22
-29 -28 27 c-15 15 -28 30 -28 35 0 9 84 11 93 2z m-1123 -12 c0 -5 -9 -17
-20 -27 -29 -26 -26 -80 6 -122 l25 -33 -57 0 -58 0 26 28 c19 20 27 41 30 79
5 50 20 83 39 83 5 0 9 -4 9 -8z m1038 -87 l3 -45 -520 0 -521 0 0 48 0 47
517 -2 518 -2 3 -46z m26 -82 c-29 -21 -39 -15 -16 10 12 13 23 30 23 38 1 8
4 3 6 -10 3 -16 -1 -29 -13 -38z"/>
<path d="M855 2305 c-104 -118 -192 -214 -195 -214 -3 -1 -39 41 -79 93 l-75
95 -37 -30 -38 -30 92 -112 c51 -62 101 -124 112 -139 l20 -26 125 140 c69 78
172 192 229 255 l104 115 -34 33 -34 34 -190 -214z m-130 -220 c-32 -36 -63
-65 -71 -65 -7 0 -28 21 -46 48 l-32 47 33 -27 c18 -16 41 -28 52 -28 11 0 41
20 67 45 26 24 49 45 50 45 2 0 -22 -29 -53 -65z"/>
<path d="M2285 1908 c-70 -39 -97 -104 -70 -174 56 -146 265 -108 265 47 0 53
-28 102 -69 124 -35 17 -97 19 -126 3z m86 -88 c23 -13 25 -53 3 -74 -29 -30
-74 -10 -74 32 0 46 30 64 71 42z"/>
<path d="M610 1313 l0 -48 45 0 45 0 0 48 0 47 -45 0 -45 0 0 -47z"/>
</g>
</svg>
