<?xml version="1.0" standalone="no"?>
<!DOCTYPE svg PUBLIC "-//W3C//DTD SVG 20010904//EN"
 "http://www.w3.org/TR/2001/REC-SVG-20010904/DTD/svg10.dtd">
<svg version="1.0" xmlns="http://www.w3.org/2000/svg"
 width="300.000000pt" height="300.000000pt" viewBox="0 0 300.000000 300.000000"
 preserveAspectRatio="xMidYMid meet">
<metadata>
Created by potrace 1.10, written by Peter Selinger 2001-2011
</metadata>
<g transform="translate(0.000000,300.000000) scale(0.100000,-0.100000)"
fill="#000000" stroke="none">
<path d="M2048 2990 c-75 -13 -131 -68 -149 -145 -13 -58 -1 -118 31 -157 l19
-23 -933 -935 c-922 -924 -933 -936 -967 -1010 -30 -68 -34 -85 -37 -186 -6
-176 35 -281 155 -396 86 -82 193 -128 292 -128 58 1 43 10 -76 50 -186 62
-277 163 -342 378 l-22 73 31 97 c18 53 43 117 58 142 15 28 373 394 938 960
501 503 917 925 923 937 9 19 8 31 -10 65 -48 93 -25 172 65 229 l60 38 56
-30 c78 -42 787 -753 815 -818 l19 -43 -27 -52 c-36 -68 -81 -98 -146 -98 -30
1 -66 9 -90 22 -34 17 -45 18 -64 9 -12 -6 -434 -422 -937 -924 -570 -568
-932 -922 -960 -938 -25 -14 -82 -37 -125 -51 -108 -35 -122 -46 -64 -46 56 0
140 24 199 57 28 16 390 370 972 951 l927 926 42 -24 c51 -28 138 -32 184 -8
33 18 77 62 94 95 6 12 11 50 11 86 0 54 -4 70 -30 108 -33 49 -718 735 -763
764 -35 22 -99 33 -149 25z"/>
<path d="M2051 2836 c-17 -18 -22 -32 -17 -49 8 -33 720 -745 752 -753 45 -12
86 45 63 88 -15 29 -627 647 -692 699 -57 45 -75 48 -106 15z m413 -375 c316
-317 367 -372 357 -385 -9 -11 -18 -13 -30 -6 -9 5 -178 171 -375 369 -312
312 -358 362 -347 375 8 9 16 16 20 16 3 0 172 -166 375 -369z"/>
<path d="M1863 2387 c-168 -167 -183 -186 -183 -217 0 -41 29 -108 56 -132 11
-9 47 -29 79 -43 77 -34 130 -85 164 -160 16 -33 39 -70 53 -82 31 -29 145
-75 167 -68 9 3 96 85 194 183 131 132 177 184 177 202 0 35 -465 500 -500
500 -18 0 -70 -45 -207 -183z m444 -83 l236 -236 -175 -175 -175 -175 -69 29
c-69 28 -69 29 -106 103 -48 95 -105 151 -186 180 -71 26 -83 37 -107 103
l-18 49 179 179 c98 98 180 179 182 179 2 0 109 -106 239 -236z"/>
<path d="M877 1403 c-772 -772 -732 -723 -732 -898 0 -91 3 -105 30 -158 38
-77 126 -158 202 -188 80 -31 186 -31 268 1 57 21 93 55 743 704 395 394 685
691 689 705 6 26 -13 48 -94 103 -28 19 -51 49 -78 100 -50 97 -58 105 -140
144 -81 38 -87 43 -138 107 -25 30 -46 47 -60 47 -15 0 -217 -195 -690 -667z
m715 603 c24 -48 95 -106 169 -135 63 -26 65 -27 99 -98 42 -87 98 -147 158
-170 l44 -16 -674 -674 c-764 -764 -728 -735 -878 -735 -68 0 -88 5 -144 31
-79 38 -137 101 -167 180 -28 76 -24 194 10 266 19 40 161 187 690 718 366
367 668 667 671 667 4 0 13 -15 22 -34z"/>
<path d="M565 865 c-31 -30 -33 -82 -4 -119 46 -58 149 -19 149 58 0 72 -95
112 -145 61z m105 -64 c0 -3 -7 -15 -15 -25 -12 -16 -20 -18 -43 -10 -36 13
-37 53 -2 71 22 11 27 10 43 -8 9 -12 17 -24 17 -28z"/>
<path d="M917 870 c-45 -36 -44 -102 2 -137 9 -7 32 -13 53 -13 49 0 93 48 84
94 -13 66 -88 96 -139 56z m77 -36 c9 -3 16 -17 16 -30 0 -31 -42 -53 -65 -34
-15 13 -20 51 -8 63 8 9 36 9 57 1z"/>
<path d="M355 545 c-52 -51 -16 -145 55 -145 43 0 65 14 80 49 36 88 -69 163
-135 96z m76 -25 c11 -6 19 -21 19 -35 0 -20 -24 -45 -44 -45 -10 0 -36 32
-36 45 0 13 26 45 36 45 3 0 14 -5 25 -10z"/>
<path d="M661 524 c-30 -38 -27 -80 8 -115 33 -32 58 -36 100 -14 31 15 54 65
44 93 -23 65 -112 86 -152 36z m103 -36 c14 -24 -3 -52 -34 -56 -41 -6 -60 46
-26 71 17 11 48 4 60 -15z"/>
</g>
</svg>
