<?xml version="1.0" standalone="no"?>
<!DOCTYPE svg PUBLIC "-//W3C//DTD SVG 20010904//EN"
 "http://www.w3.org/TR/2001/REC-SVG-20010904/DTD/svg10.dtd">
<svg version="1.0" xmlns="http://www.w3.org/2000/svg"
 width="300.000000pt" height="300.000000pt" viewBox="0 0 300.000000 300.000000"
 preserveAspectRatio="xMidYMid meet">
<metadata>
Created by potrace 1.10, written by Peter Selinger 2001-2011
</metadata>
<g transform="translate(0.000000,300.000000) scale(0.100000,-0.100000)"
fill="#000000" stroke="none">
<path d="M1270 2994 c-74 -11 -95 -19 -126 -46 -44 -39 -76 -100 -78 -150 l-1
-38 -103 0 c-102 0 -104 -1 -134 -30 -25 -25 -29 -36 -26 -72 l3 -43 -196 -5
c-288 -7 -279 3 -279 -347 0 -220 2 -241 18 -256 23 -21 36 -21 56 -1 14 13
16 50 16 254 0 205 2 241 16 255 14 13 42 15 192 13 l177 -3 -3 -37 c-4 -40
18 -92 43 -102 9 -3 208 -6 441 -6 l425 0 24 25 c20 19 25 34 25 75 l0 50 173
0 c123 0 178 -4 190 -12 15 -12 17 -70 17 -718 l1 -705 -78 -7 c-99 -8 -188
-43 -273 -107 -219 -165 -280 -462 -145 -704 32 -57 113 -147 149 -166 14 -8
26 -17 26 -20 0 -12 -1373 -1 -1387 10 -11 9 -13 170 -13 880 0 775 -2 869
-16 883 -20 21 -37 20 -57 -2 -16 -17 -17 -93 -17 -881 0 -710 2 -867 14 -895
17 -40 60 -76 93 -76 21 0 22 3 13 20 -11 20 -8 20 673 20 667 0 684 0 702 20
10 11 15 28 12 40 -3 11 -4 20 -2 20 2 0 37 -16 80 -36 66 -32 89 -37 171 -42
92 -5 94 -5 78 -23 -16 -18 -15 -19 23 -19 87 0 271 83 301 136 29 53 -29 81
-83 40 -19 -15 -65 -41 -103 -59 -63 -30 -73 -32 -183 -32 -114 0 -116 0 -195
39 -164 81 -264 239 -264 416 1 273 260 496 527 452 291 -48 463 -342 362
-619 -25 -68 -18 -93 26 -93 30 0 39 13 63 85 59 175 22 374 -97 522 -53 65
-168 143 -249 169 l-62 19 0 716 0 716 -23 34 c-37 55 -53 59 -259 59 l-188 0
0 50 c0 41 -5 56 -25 75 -23 23 -31 25 -130 25 l-105 0 0 33 c0 51 -46 134
-92 164 -36 24 -102 42 -138 37z m35 -23 c3 -5 -4 -13 -16 -16 -23 -8 -34 -1
-24 14 8 13 32 14 40 2z m66 -100 c37 -37 39 -42 39 -102 0 -94 7 -99 149 -99
l116 0 -2 -100 -1 -100 -391 -3 -391 -2 0 103 0 102 111 0 c142 0 149 4 149
81 0 102 49 159 139 159 37 0 49 -6 82 -39z m-521 -301 c0 -45 -8 -49 -35 -20
-17 19 -17 21 0 40 27 29 35 25 35 -20z m896 -19 c-23 -25 -36 -19 -36 18 0
38 10 45 34 22 19 -20 19 -21 2 -40z m471 -1507 c-7 -7 -67 5 -67 14 0 3 7 14
16 23 16 18 17 17 36 -7 11 -14 18 -27 15 -30z"/>
<path d="M612 2088 c-15 -15 -15 -51 0 -66 7 -7 44 -12 95 -12 77 0 84 2 99
25 16 24 16 27 -1 45 -15 17 -31 20 -100 20 -50 0 -86 -5 -93 -12z"/>
<path d="M992 2088 c-15 -15 -15 -51 0 -66 9 -9 129 -12 478 -12 440 0 468 1
483 18 21 23 21 36 1 56 -14 14 -71 16 -483 16 -350 0 -470 -3 -479 -12z"/>
<path d="M607 1853 c-11 -11 -8 -48 5 -61 8 -8 45 -12 100 -12 77 0 89 2 98
20 8 14 8 26 0 40 -10 18 -21 20 -104 20 -51 0 -96 -3 -99 -7z"/>
<path d="M984 1845 c-4 -8 -3 -26 0 -40 l6 -25 480 0 c469 0 480 0 490 20 8
14 8 26 0 40 -10 20 -21 20 -491 20 -417 0 -480 -2 -485 -15z"/>
<path d="M612 1618 c-15 -15 -15 -51 0 -66 7 -7 44 -12 95 -12 77 0 84 2 99
25 16 24 16 27 -1 45 -15 17 -31 20 -100 20 -50 0 -86 -5 -93 -12z"/>
<path d="M992 1618 c-15 -15 -15 -51 0 -66 9 -9 129 -12 478 -12 440 0 468 1
483 18 21 23 21 36 1 56 -14 14 -71 16 -483 16 -350 0 -470 -3 -479 -12z"/>
<path d="M607 1383 c-11 -11 -8 -48 5 -61 8 -8 45 -12 100 -12 77 0 89 2 98
20 8 14 8 26 0 40 -10 18 -21 20 -104 20 -51 0 -96 -3 -99 -7z"/>
<path d="M987 1383 c-11 -11 -8 -48 5 -61 9 -9 130 -12 485 -12 462 0 473 0
483 20 8 14 8 26 0 40 -10 20 -21 20 -489 20 -263 0 -481 -3 -484 -7z"/>
<path d="M612 1148 c-15 -15 -15 -51 0 -66 7 -7 44 -12 94 -12 74 0 84 2 98
22 20 28 20 33 0 52 -19 20 -173 23 -192 4z"/>
<path d="M992 1148 c-18 -18 -14 -56 7 -68 13 -6 146 -10 364 -10 320 0 345 1
360 18 21 23 21 36 1 56 -13 14 -61 16 -368 16 -260 0 -355 -3 -364 -12z"/>
<path d="M620 918 c-22 -8 -27 -47 -8 -66 8 -8 45 -12 100 -12 77 0 89 2 98
20 12 22 -2 59 -23 61 -64 4 -152 3 -167 -3z"/>
<path d="M999 918 c-21 -8 -26 -47 -7 -66 17 -17 529 -17 546 0 16 16 15 43
-2 57 -16 13 -503 21 -537 9z"/>
<path d="M1930 832 c-69 -11 -113 -87 -91 -155 7 -19 34 -56 62 -82 l50 -47
-55 -58 c-78 -81 -85 -128 -28 -191 19 -21 39 -32 68 -36 51 -7 87 11 142 71
l42 46 42 -46 c55 -60 91 -78 142 -71 29 4 49 15 68 36 57 63 50 110 -28 191
l-55 58 50 47 c61 57 78 101 62 156 -17 58 -65 86 -139 81 -13 -1 -49 -27 -83
-59 l-60 -57 -52 52 c-54 53 -92 71 -137 64z m105 -152 c38 -38 76 -70 84 -70
9 0 48 32 87 71 58 57 76 70 93 64 36 -11 24 -38 -49 -112 -38 -38 -70 -76
-70 -82 0 -7 32 -46 71 -86 73 -75 85 -107 43 -113 -15 -2 -39 16 -84 62 -83
86 -95 86 -180 1 -44 -44 -72 -65 -85 -63 -41 6 -28 38 44 113 39 40 71 78 71
85 0 7 -31 45 -70 84 -68 71 -83 99 -57 109 25 11 34 5 102 -63z m-37 -124 c2
-10 0 -22 -6 -28 -6 -6 -11 1 -14 22 -5 32 14 38 20 6z"/>
<path d="M612 678 c-18 -18 -14 -56 7 -68 11 -5 53 -10 95 -10 66 0 77 3 90
22 20 28 20 33 0 52 -19 20 -173 23 -192 4z"/>
<path d="M992 678 c-18 -18 -14 -56 7 -68 12 -6 98 -10 209 -10 170 0 191 2
205 18 21 23 21 36 1 56 -13 14 -47 16 -213 16 -140 0 -200 -3 -209 -12z"/>
<path d="M620 448 c-22 -8 -27 -47 -8 -66 8 -8 45 -12 100 -12 77 0 89 2 98
20 12 22 -2 59 -23 61 -64 4 -152 3 -167 -3z"/>
<path d="M999 448 c-21 -8 -26 -47 -7 -66 8 -8 66 -12 195 -12 172 0 183 1
193 20 12 23 -2 60 -23 60 -118 5 -343 3 -358 -2z"/>
</g>
</svg>
