<?xml version="1.0" standalone="no"?>
<!DOCTYPE svg PUBLIC "-//W3C//DTD SVG 20010904//EN"
 "http://www.w3.org/TR/2001/REC-SVG-20010904/DTD/svg10.dtd">
<svg version="1.0" xmlns="http://www.w3.org/2000/svg"
 width="300.000000pt" height="300.000000pt" viewBox="0 0 300.000000 300.000000"
 preserveAspectRatio="xMidYMid meet">
<metadata>
Created by potrace 1.10, written by Peter Selinger 2001-2011
</metadata>
<g transform="translate(0.000000,300.000000) scale(0.100000,-0.100000)"
fill="#000000" stroke="none">
<path d="M44 2947 c-25 -22 -29 -33 -32 -97 -5 -85 10 -89 27 -8 7 28 16 58
23 65 8 10 50 13 170 13 l159 0 24 -27 c14 -16 33 -38 44 -50 18 -21 26 -21
210 -22 105 0 195 -2 201 -6 6 -4 10 -57 10 -130 0 -114 2 -126 23 -150 l22
-26 145 12 c406 34 1688 -4 1746 -52 16 -13 17 -70 11 -956 -6 -1066 -13 -976
76 -992 26 -5 51 -11 54 -15 19 -18 -26 -28 -138 -30 -68 -2 -132 -6 -141 -10
-26 -12 -32 -43 -18 -92 19 -66 9 -151 -23 -201 -60 -95 -181 -125 -272 -68
-90 56 -113 151 -62 252 15 29 27 61 27 72 0 47 -17 49 -481 57 l-437 7 -25
-26 -26 -25 19 -56 c36 -101 21 -176 -50 -247 -86 -86 -202 -87 -282 -2 -59
62 -63 128 -13 232 l36 74 -22 24 c-20 20 -32 23 -93 23 -99 0 -206 11 -206
21 0 5 9 9 19 9 11 0 30 13 43 29 25 28 25 31 31 302 3 151 4 643 3 1093 l-3
819 -23 19 c-19 16 -42 18 -180 18 l-158 0 -26 -31 c-14 -17 -26 -37 -26 -44
0 -30 -40 -37 -200 -33 l-159 3 -35 34 -34 33 8 -37 c15 -68 20 -70 224 -73
180 -3 184 -3 210 20 17 15 27 35 29 55 l2 33 165 0 165 0 -1 -858 c-1 -471
-2 -966 -3 -1099 l-1 -243 -44 0 c-115 0 -155 -62 -57 -90 20 -6 104 -14 188
-17 l152 -6 -20 -28 c-56 -79 -74 -174 -46 -242 47 -111 164 -167 281 -133 65
19 116 60 154 125 23 40 27 57 27 126 0 67 -4 86 -24 119 l-25 39 255 -6 c140
-4 348 -7 463 -7 198 0 208 -1 194 -17 -38 -44 -62 -108 -62 -168 0 -66 16
-106 63 -152 119 -120 322 -75 394 87 28 62 28 153 0 207 l-21 41 106 -5 c141
-6 193 4 210 40 11 22 11 32 0 55 -11 23 -21 28 -76 36 -52 7 -62 12 -57 25 4
9 9 437 12 951 6 921 5 935 -14 959 -19 23 -30 25 -184 37 -508 39 -1035 52
-1419 35 -140 -6 -272 -14 -292 -17 l-38 -7 0 146 c0 141 -1 147 -22 159 -17
9 -80 13 -225 13 -198 0 -203 0 -203 21 0 26 -34 62 -63 68 -12 3 -92 7 -179
11 -155 6 -156 6 -184 -18z"/>
<path d="M1075 2493 c-207 -5 -190 19 -199 -284 -6 -231 -6 -243 14 -276 20
-34 20 -34 1 -61 -18 -25 -20 -51 -23 -369 l-3 -341 23 -32 24 -32 -21 -22
c-20 -21 -21 -33 -21 -259 0 -231 1 -236 23 -261 l22 -25 913 -3 914 -3 24 28
c24 28 24 29 24 258 l0 230 -25 24 -24 25 -375 0 -374 0 -24 -28 c-13 -16 -30
-54 -38 -86 -7 -31 -19 -61 -27 -67 -19 -17 -346 -7 -367 10 -11 9 -16 30 -16
61 0 38 -6 55 -26 79 l-26 31 -176 1 c-98 0 -197 4 -222 8 -65 12 216 17 990
19 360 0 663 1 672 2 10 0 26 10 38 22 19 21 20 33 20 352 l0 330 -26 27 -27
28 28 33 28 33 -5 228 c-7 296 14 271 -243 292 -406 32 -850 40 -1470 28z
m980 -43 c245 -9 511 -26 630 -38 l60 -7 3 -239 4 -239 -98 7 c-395 26 -1381
36 -1624 16 -63 -5 -115 -8 -117 -6 -1 1 0 116 4 254 l6 252 196 3 c476 7 702
6 936 -3z m-55 -537 c0 -4 -9 -17 -21 -29 -13 -14 -22 -41 -26 -80 -10 -99 0
-94 -188 -94 -192 0 -199 3 -211 91 -5 37 -16 61 -36 85 l-30 34 256 0 c141 0
256 -3 256 -7z m-490 -75 c1 -55 20 -122 42 -145 21 -22 27 -23 214 -23 150 0
194 3 203 14 9 11 29 125 31 172 0 13 7 13 455 -7 138 -6 260 -13 273 -16 l22
-5 0 -337 0 -336 -888 0 c-488 0 -902 -4 -919 -7 l-33 -7 0 359 0 360 268 3
c147 1 282 3 300 5 30 2 32 0 32 -30z m-279 -788 l247 0 3 -80 c3 -44 9 -84
16 -91 9 -9 76 -14 220 -17 175 -4 210 -2 221 10 6 8 20 50 30 94 l19 79 382
3 381 2 0 -240 0 -240 -920 0 -920 0 0 246 0 247 38 -7 c20 -3 148 -6 283 -6z"/>
</g>
</svg>
