<?xml version="1.0" standalone="no"?>
<!DOCTYPE svg PUBLIC "-//W3C//DTD SVG 20010904//EN"
 "http://www.w3.org/TR/2001/REC-SVG-20010904/DTD/svg10.dtd">
<svg version="1.0" xmlns="http://www.w3.org/2000/svg"
 width="300.000000pt" height="300.000000pt" viewBox="0 0 300.000000 300.000000"
 preserveAspectRatio="xMidYMid meet">
<metadata>
Created by potrace 1.10, written by Peter Selinger 2001-2011
</metadata>
<g transform="translate(0.000000,300.000000) scale(0.100000,-0.100000)"
fill="#000000" stroke="none">
<path d="M226 2529 c-54 -13 -105 -54 -127 -103 -17 -38 -19 -74 -19 -511 0
-353 3 -474 12 -483 18 -18 56 -14 68 7 6 13 10 183 10 483 0 504 -1 487 57
517 15 8 221 11 703 11 618 0 685 -2 710 -17 16 -9 33 -27 39 -40 8 -17 11
-252 11 -759 l0 -734 -232 2 -232 3 -8 41 c-17 104 -107 217 -213 270 -55 27
-69 29 -170 29 -101 0 -115 -2 -170 -29 -106 -53 -196 -166 -213 -270 -6 -35
-11 -41 -35 -44 l-27 -3 0 106 c0 73 -4 115 -15 134 -21 42 -75 63 -146 59
l-59 -3 0 48 c0 60 -14 87 -43 87 -36 0 -47 -19 -47 -80 0 -51 -3 -57 -34 -82
-21 -17 -35 -38 -38 -57 -3 -17 -1 -31 3 -31 3 0 31 27 60 59 50 56 55 59 71
44 26 -23 22 -33 -11 -33 -15 0 -40 -9 -55 -21 -26 -20 -26 -22 -26 -149 0
-75 4 -131 10 -135 6 -3 10 -11 10 -18 0 -6 -16 5 -37 24 -23 22 -34 27 -30
16 4 -10 7 -25 7 -34 0 -8 13 -28 29 -44 29 -29 30 -29 155 -29 l125 0 35 31
c25 21 43 29 63 27 24 -3 29 -9 35 -46 4 -23 22 -70 39 -103 117 -220 420
-270 610 -101 52 46 107 141 117 204 l8 43 454 0 454 0 8 -41 c17 -103 107
-218 208 -267 154 -74 333 -45 453 75 49 49 107 155 107 196 0 14 15 36 36 56
22 20 39 47 44 71 l9 38 -59 -58 c-65 -64 -66 -64 -73 23 -4 57 -2 60 24 36
16 -15 17 -13 8 26 -14 61 -44 115 -90 161 l-40 40 68 -3 68 -3 2 -65 c2 -36
6 -85 9 -110 5 -41 7 -43 20 -25 10 13 14 48 14 114 l0 94 23 -21 23 -22 -4
35 c-3 25 -14 44 -37 63 -26 21 -33 37 -39 77 -10 81 -49 147 -110 190 -55 37
-202 95 -246 95 -41 0 -47 11 -52 86 -4 83 -36 143 -88 165 -18 9 -33 24 -37
39 -44 173 -170 268 -401 301 -91 13 -112 6 -112 -36 0 -33 15 -40 112 -53 47
-7 108 -20 134 -30 65 -23 136 -90 163 -151 l21 -50 -25 -25 c-25 -25 -25 -25
-25 -221 0 -195 0 -196 25 -220 48 -49 154 -23 203 49 12 18 22 40 22 49 0 9
6 17 13 17 27 0 135 -32 187 -56 90 -41 115 -74 135 -171 l7 -33 -52 0 c-29 0
-61 -7 -74 -16 -22 -14 -29 -13 -75 2 -79 25 -210 16 -284 -20 -107 -52 -198
-166 -215 -270 l-8 -41 -177 -3 -177 -2 -2 754 -3 754 -30 43 c-16 23 -48 52
-70 63 -39 21 -51 21 -725 23 -399 1 -701 -3 -724 -8z m2142 -697 c13 -21 13
-22 -8 -22 -13 0 -32 -7 -42 -17 -23 -21 -24 -1 -1 38 20 33 30 33 51 1z m21
-78 l31 -26 0 -112 c0 -104 -2 -114 -22 -133 -13 -11 -33 -24 -45 -28 l-23 -6
0 165 c0 184 2 188 59 140z m121 -198 c0 -6 -12 -19 -25 -29 l-25 -18 0 39 c0
21 3 42 7 45 8 9 43 -22 43 -37z m407 -352 c-1 -1 -19 1 -40 5 -37 6 -37 6
-21 30 l17 24 23 -29 c13 -15 22 -29 21 -30z m-153 -19 c-10 -15 -13 -32 -9
-46 8 -24 -4 -20 -43 15 l-23 20 33 18 c48 25 62 23 42 -7z m-1801 -48 c188
-86 238 -338 95 -486 -149 -156 -406 -116 -500 78 -27 55 -36 162 -18 218 56
179 253 268 423 190z m1690 0 c106 -49 169 -143 175 -262 9 -179 -124 -320
-303 -319 -94 0 -160 29 -224 100 -57 62 -81 123 -81 204 0 79 24 141 77 200
96 107 230 136 356 77z m-2355 -39 c8 -8 12 -50 12 -125 0 -133 0 -133 -114
-133 -112 0 -106 -7 -106 134 0 68 3 126 7 129 12 12 188 8 201 -5z m1472
-230 c0 -4 -16 -8 -35 -8 -39 0 -42 5 -18 32 15 17 17 17 35 2 10 -10 18 -21
18 -26z m-1390 11 c0 -5 1 -11 3 -14 1 -3 -12 -15 -30 -26 l-32 -20 16 40 c10
26 20 38 29 34 8 -3 14 -9 14 -14z m835 1 c17 -19 17 -21 0 -40 -27 -29 -35
-25 -35 20 0 45 8 49 35 20z m960 -58 c-3 -3 -16 4 -28 17 l-22 22 25 21 25
20 3 -37 c2 -20 1 -40 -3 -43z m-1685 39 c0 -38 -13 -46 -35 -21 -15 16 -15
22 -5 35 21 25 40 18 40 -14z"/>
<path d="M763 969 c-20 -13 -38 -37 -49 -65 -16 -42 -16 -47 1 -90 43 -114
197 -114 240 0 17 43 17 48 1 91 -31 79 -122 109 -193 64z m107 -84 c16 -19
10 -45 -15 -61 -39 -26 -86 31 -53 64 16 16 53 15 68 -3z"/>
<path d="M2460 971 c-24 -13 -41 -32 -54 -64 -18 -44 -18 -48 -2 -91 43 -111
190 -117 238 -10 52 120 -66 227 -182 165z m105 -111 c0 -12 -9 -29 -20 -36
-18 -12 -24 -11 -43 2 -12 8 -22 24 -22 34 0 10 10 26 22 34 19 13 25 14 43 2
11 -7 20 -24 20 -36z"/>
<path d="M1025 2347 c-79 -26 -107 -50 -326 -268 -258 -258 -274 -281 -273
-414 0 -68 4 -89 29 -138 76 -154 260 -223 415 -157 45 19 93 61 273 239 121
119 230 233 243 254 35 54 58 150 49 211 -14 109 -92 214 -193 258 -57 26
-163 33 -217 15z m166 -88 c87 -27 159 -127 159 -224 0 -72 -35 -136 -123
-223 l-73 -73 -37 73 c-53 107 -154 203 -256 244 l-43 17 79 79 c43 43 96 87
118 98 45 23 118 26 176 9z m-398 -173 c-3 -13 0 -27 6 -30 23 -15 9 -23 -34
-22 -25 0 -45 4 -45 7 0 7 67 69 74 69 2 0 1 -11 -1 -24z m44 -116 c108 -51
191 -143 229 -255 l17 -47 -89 -90 c-120 -121 -159 -143 -250 -143 -61 0 -77
4 -120 30 -92 57 -133 166 -103 273 10 38 32 66 117 155 58 59 112 107 121
107 9 0 44 -13 78 -30z m333 -257 c11 3 20 4 20 3 0 -1 -17 -19 -39 -40 l-38
-37 -2 52 c-1 51 0 51 19 34 11 -10 28 -15 40 -12z"/>
<path d="M1907 1909 c-36 -21 -47 -71 -47 -219 0 -206 11 -220 160 -220 104 0
126 8 144 53 24 60 -9 298 -47 343 -36 41 -167 68 -210 43z m109 -89 c42 -10
42 -10 52 -73 6 -34 14 -91 17 -127 l7 -65 -71 0 -71 0 0 142 c0 110 3 141 13
138 6 -2 31 -9 53 -15z"/>
</g>
</svg>
