<?xml version="1.0" standalone="no"?>
<!DOCTYPE svg PUBLIC "-//W3C//DTD SVG 20010904//EN"
 "http://www.w3.org/TR/2001/REC-SVG-20010904/DTD/svg10.dtd">
<svg version="1.0" xmlns="http://www.w3.org/2000/svg"
 width="300.000000pt" height="300.000000pt" viewBox="0 0 300.000000 300.000000"
 preserveAspectRatio="xMidYMid meet">
<metadata>
Created by potrace 1.10, written by Peter Selinger 2001-2011
</metadata>
<g transform="translate(0.000000,300.000000) scale(0.100000,-0.100000)"
fill="#000000" stroke="none">
<path d="M1319 2795 c-560 -88 -958 -443 -1084 -969 -66 -272 -43 -593 61
-844 197 -476 628 -766 1174 -788 277 -12 555 71 790 237 96 68 241 213 309
309 237 336 304 769 180 1158 -37 114 -91 227 -114 236 -19 7 -50 -8 -58 -28
-3 -8 14 -61 38 -118 112 -266 131 -512 61 -790 -141 -554 -599 -908 -1176
-908 -701 0 -1216 525 -1214 1235 2 327 115 594 352 828 375 372 909 469 1379
252 77 -36 103 -36 117 0 10 28 -6 46 -73 79 -211 107 -496 149 -742 111z
m-403 -178 c-165 -106 -214 -143 -307 -236 -58 -58 -129 -139 -157 -180 -54
-78 -67 -89 -30 -24 68 118 207 270 313 343 68 47 178 110 190 109 5 0 2 -6
-9 -12z"/>
<path d="M2228 2563 c-98 -98 -181 -187 -184 -198 -2 -11 0 -69 5 -130 l10
-110 -305 -305 c-167 -168 -304 -311 -304 -318 0 -16 36 -52 52 -52 7 0 150
137 318 304 l305 305 110 -10 c61 -5 119 -7 130 -5 32 8 375 359 375 384 0 35
-37 49 -144 56 -54 3 -101 7 -103 9 -2 2 -6 49 -9 103 -7 107 -21 144 -56 144
-15 0 -79 -57 -200 -177z m206 101 c3 -9 6 -36 6 -61 l0 -46 -21 27 c-25 31
-47 33 -83 5 -40 -31 -31 -14 20 41 49 52 68 61 78 34z m-14 -254 c7 -4 48
-11 91 -15 l77 -7 -130 -127 -129 -127 -86 8 c-47 4 -87 9 -90 11 -2 3 -7 43
-11 90 l-8 86 126 128 125 128 11 -83 c6 -50 16 -87 24 -92z m66 33 c-12 -12
-41 12 -44 38 l-4 24 28 -27 c15 -15 25 -31 20 -35z m178 -9 c27 -10 18 -28
-44 -88 -33 -32 -60 -56 -60 -54 0 2 11 19 25 38 31 42 31 57 3 87 l-21 23 40
0 c23 0 48 -3 57 -6z m-556 -349 c-48 -25 -59 -24 -35 2 8 10 19 31 23 47 l7
29 24 -28 25 -28 -44 -22z"/>
<path d="M1375 2380 c-223 -35 -433 -151 -565 -312 -58 -71 -140 -232 -164
-323 -74 -280 -8 -604 169 -818 210 -254 581 -372 910 -287 532 136 813 733
582 1233 -37 79 -60 96 -96 70 -28 -19 -27 -29 14 -114 112 -239 93 -506 -53
-748 -107 -177 -300 -317 -503 -363 -79 -18 -271 -15 -348 5 -253 67 -442 223
-545 449 -179 390 -23 833 365 1033 127 66 217 88 364 88 137 1 208 -14 324
-68 40 -19 79 -35 86 -35 21 0 44 38 37 62 -6 26 -122 81 -230 109 -88 24
-257 32 -347 19z m-245 -124 c0 -2 -19 -15 -43 -29 -82 -49 -184 -136 -242
-209 -79 -98 -81 -100 -54 -49 39 73 174 203 259 249 79 44 80 44 80 38z
m1165 -1047 c-20 -57 -59 -131 -101 -194 -33 -51 -138 -160 -170 -178 -8 -5
16 22 54 60 96 96 178 224 216 336 3 9 8 17 10 17 3 0 -1 -18 -9 -41z m-1491
-177 c42 -64 126 -152 193 -203 75 -55 86 -66 45 -43 -102 58 -207 166 -261
269 -33 61 -28 57 23 -23z"/>
<path d="M1401 1954 c-224 -48 -363 -223 -363 -454 0 -142 52 -264 149 -350
62 -54 135 -88 233 -107 70 -14 93 -15 153 -5 255 44 425 275 389 528 -12 89
-34 121 -75 110 -32 -8 -41 -34 -26 -72 16 -43 14 -152 -5 -215 -22 -78 -71
-147 -136 -192 -75 -52 -143 -70 -245 -65 -183 10 -316 131 -344 313 -37 244
177 461 419 424 30 -4 64 -11 76 -14 24 -8 54 17 54 44 0 30 -34 51 -96 61
-75 13 -104 12 -183 -6z m-196 -166 c-32 -35 -63 -67 -68 -73 -6 -5 -1 5 9 24
17 30 99 111 112 111 3 0 -21 -28 -53 -62z"/>
</g>
</svg>
