<?xml version="1.0" standalone="no"?>
<!DOCTYPE svg PUBLIC "-//W3C//DTD SVG 20010904//EN"
 "http://www.w3.org/TR/2001/REC-SVG-20010904/DTD/svg10.dtd">
<svg version="1.0" xmlns="http://www.w3.org/2000/svg"
 width="300.000000pt" height="300.000000pt" viewBox="0 0 300.000000 300.000000"
 preserveAspectRatio="xMidYMid meet">
<metadata>
Created by potrace 1.10, written by Peter Selinger 2001-2011
</metadata>
<g transform="translate(0.000000,300.000000) scale(0.100000,-0.100000)"
fill="#000000" stroke="none">
<path d="M1461 2810 c-73 -17 -121 -81 -121 -162 0 -43 -3 -49 -32 -64 -18 -9
-180 -102 -360 -206 l-327 -189 -30 21 c-66 50 -171 30 -223 -42 -35 -49 -33
-142 4 -190 15 -19 41 -41 57 -48 l31 -12 0 -418 0 -418 -31 -12 c-16 -7 -42
-29 -57 -48 -37 -48 -39 -141 -4 -190 52 -72 157 -92 223 -43 l29 22 359 -207
359 -208 4 -56 c7 -96 65 -152 158 -152 93 0 151 56 158 152 l4 56 359 207
358 208 30 -22 c66 -49 171 -29 223 43 35 49 33 142 -4 190 -15 19 -41 41 -57
48 l-31 12 0 418 0 418 31 12 c16 7 42 29 57 48 37 48 39 141 4 190 -52 72
-157 92 -223 43 l-29 -22 -359 207 -359 208 -4 56 c-8 109 -92 173 -197 150z
m78 -85 c31 -15 54 -65 44 -93 -3 -9 -15 -27 -26 -39 -40 -45 -118 -23 -140
39 -10 27 13 77 42 93 33 18 46 18 80 0z m-123 -210 c50 -34 118 -34 168 0
l37 25 37 -24 c51 -33 627 -364 656 -377 20 -9 23 -17 21 -61 l-2 -51 -69 -40
c-38 -22 -113 -66 -168 -98 -54 -33 -102 -59 -106 -59 -4 0 2 26 13 58 14 42
20 86 21 165 l1 108 -37 35 c-30 27 -46 34 -78 34 -84 0 -130 -49 -130 -137 0
-76 -26 -178 -62 -246 -36 -68 -125 -161 -182 -191 -35 -19 -37 -19 -72 0 -40
21 -144 115 -144 129 0 6 45 10 106 10 91 0 108 3 118 18 8 12 8 22 0 35 -10
14 -30 17 -143 20 l-132 3 -13 32 c-7 18 -16 44 -20 60 l-6 27 174 0 c145 0
177 3 190 16 19 18 19 20 6 45 -10 18 -23 19 -195 19 l-185 0 0 35 c0 76 -51
125 -130 125 -32 0 -48 -7 -78 -34 l-37 -35 1 -108 c1 -79 7 -123 21 -165 11
-32 17 -58 13 -58 -4 0 -52 26 -106 59 -55 32 -130 76 -168 98 l-69 40 -2 50
c-2 48 0 52 29 66 46 22 659 377 671 388 12 12 9 13 51 -16z m-855 -384 c17
-18 29 -40 29 -56 0 -32 -49 -85 -80 -85 -29 0 -76 26 -84 45 -13 35 -6 76 19
100 34 35 78 33 116 -4z m1994 4 c25 -24 32 -65 19 -100 -8 -19 -55 -45 -84
-45 -31 0 -80 53 -80 85 0 16 12 38 29 56 38 37 82 39 116 4z m-1428 3 c5 -7
15 -57 21 -111 20 -165 96 -308 206 -389 25 -18 45 -35 45 -38 0 -3 -22 -15
-49 -27 l-49 -21 -70 74 c-80 86 -141 200 -165 311 -19 85 -21 184 -4 201 16
16 53 15 65 0z m811 0 c17 -17 15 -116 -4 -201 -28 -125 -84 -228 -177 -322
-85 -85 -138 -117 -322 -191 -92 -37 -198 -139 -243 -234 -38 -81 -56 -177
-47 -253 7 -66 -3 -87 -41 -87 -45 0 -58 38 -51 153 8 147 42 236 137 354 49
62 167 144 242 168 199 65 348 211 402 393 8 29 18 88 22 130 4 42 11 83 17
90 12 15 49 16 65 0z m-719 -125 c-19 -22 -29 -15 -29 19 0 30 0 31 20 13 15
-14 17 -21 9 -32z m-370 -183 c176 -101 231 -138 246 -163 10 -17 45 -60 77
-93 l59 -62 -68 -69 c-37 -38 -79 -89 -92 -114 -22 -42 -39 -54 -237 -168
l-214 -123 -26 21 c-15 12 -33 21 -40 21 -12 0 -14 72 -14 420 0 352 2 420 14
420 8 0 24 9 37 20 13 10 26 19 28 20 2 0 106 -59 230 -130z m1558 110 c14
-11 32 -20 39 -20 12 0 14 -72 14 -420 0 -348 -2 -420 -14 -420 -7 0 -25 -9
-40 -21 l-26 -21 -214 123 c-198 114 -215 126 -237 168 -13 25 -55 76 -92 114
l-69 70 50 51 c27 28 64 71 81 95 26 37 66 64 253 172 123 71 225 129 226 129
2 0 15 -9 29 -20z m-1098 -117 c3 -2 -3 -11 -13 -21 -16 -16 -18 -16 -32 2 -8
11 -14 24 -14 28 0 8 49 0 59 -9z m-247 -15 c8 -13 18 -34 23 -47 l7 -23 -41
23 c-43 24 -49 37 -29 57 17 17 24 15 40 -10z m916 10 c20 -20 14 -33 -28 -57
-45 -25 -45 -25 -26 20 21 51 32 59 54 37z m-504 -211 c17 -13 16 -14 -13 -27
-37 -15 -42 -12 -34 18 6 25 21 28 47 9z m288 -201 c119 -113 177 -240 185
-406 5 -106 -7 -143 -46 -148 -39 -6 -46 12 -47 116 0 107 -17 172 -65 258
-27 49 -107 131 -159 165 -14 9 -23 18 -20 20 12 9 86 48 90 49 3 0 31 -24 62
-54z m-182 -1 c0 -29 -8 -31 -36 -10 -16 13 -17 16 -4 25 25 17 40 11 40 -15z
m-28 -61 c46 -23 158 -118 158 -133 0 -3 -55 -6 -121 -6 -105 0 -123 -2 -133
-17 -8 -13 -8 -23 0 -35 10 -15 32 -19 154 -23 161 -6 145 3 163 -87 l7 -33
-180 0 c-149 0 -181 -3 -194 -16 -19 -18 -19 -20 -6 -45 10 -18 23 -19 194
-19 l183 0 -5 -29 c-5 -38 22 -87 61 -111 61 -37 136 -19 172 43 25 42 31 183
12 265 -10 44 -11 62 -3 59 6 -3 80 -45 165 -94 l154 -90 2 -51 c2 -44 -1 -52
-21 -61 -29 -13 -605 -344 -656 -377 l-37 -24 -37 25 c-26 18 -50 25 -84 25
-34 0 -58 -7 -84 -25 l-37 -25 -37 24 c-52 34 -625 363 -654 377 -22 9 -25 17
-23 61 l2 51 154 90 c85 49 159 91 165 94 8 3 8 -13 -2 -54 -16 -67 -18 -170
-4 -228 13 -56 67 -105 117 -105 47 0 97 30 118 70 12 24 15 46 9 99 -16 162
69 320 216 400 30 17 56 31 58 31 1 0 26 -12 54 -26z m-492 -114 c0 -6 -7 -25
-16 -41 -15 -30 -16 -30 -35 -13 -25 22 -24 26 9 46 32 20 42 22 42 8z m922
-11 c28 -20 28 -22 12 -40 -23 -26 -30 -24 -43 12 -19 56 -15 60 31 28z m-224
-21 c21 -21 15 -40 -10 -32 -30 9 -32 10 -25 29 8 18 19 19 35 3z m-1197 -217
c17 -18 29 -40 29 -56 0 -38 -50 -85 -90 -85 -42 0 -80 39 -80 83 0 79 85 114
141 58z m1978 14 c73 -37 43 -155 -39 -155 -40 0 -90 47 -90 85 0 32 49 85 80
85 11 0 34 -7 49 -15z m-729 -25 c0 -22 -4 -28 -15 -24 -18 7 -19 26 -3 42 17
17 18 16 18 -18z m-253 -562 c30 -34 34 -55 19 -92 -29 -69 -123 -69 -152 0
-24 57 15 114 76 114 25 0 43 -7 57 -22z"/>
</g>
</svg>
